<svg viewBox="0 0 24 24" fill="none" xmlns="http://www.w3.org/2000/svg">
<g clip-path="url(#clip0_85_247)">
<path d="M9.24967 21.1673C9.75593 21.1673 10.1663 20.7569 10.1663 20.2507C10.1663 19.7444 9.75593 19.334 9.24967 19.334C8.74341 19.334 8.33301 19.7444 8.33301 20.2507C8.33301 20.7569 8.74341 21.1673 9.24967 21.1673Z" stroke="currentColor" stroke-width="2" stroke-linecap="round" stroke-linejoin="round"/>
<path d="M19.3337 21.1673C19.8399 21.1673 20.2503 20.7569 20.2503 20.2507C20.2503 19.7444 19.8399 19.334 19.3337 19.334C18.8274 19.334 18.417 19.7444 18.417 20.2507C18.417 20.7569 18.8274 21.1673 19.3337 21.1673Z" stroke="currentColor" stroke-width="2" stroke-linecap="round" stroke-linejoin="round"/>
<path d="M1.91699 1.91602H5.58366L8.04033 14.1902C8.12415 14.6122 8.35374 14.9913 8.68891 15.2611C9.02408 15.5309 9.44346 15.6743 9.87366 15.666H18.7837C19.2139 15.6743 19.6332 15.5309 19.9684 15.2611C20.3036 14.9913 20.5332 14.6122 20.617 14.1902L22.0837 6.49935H6.50033" stroke="currentColor" stroke-width="2" stroke-linecap="round" stroke-linejoin="round"/>
</g>
<defs>
<clipPath id="clip0_85_247">
<rect width="22" height="22" fill="white" transform="translate(1 1)"/>
</clipPath>
</defs>
</svg>
